<?xml version="1.0" standalone="no"?>
<!DOCTYPE svg PUBLIC "-//W3C//DTD SVG 20010904//EN"
 "http://www.w3.org/TR/2001/REC-SVG-20010904/DTD/svg10.dtd">
<svg version="1.0" xmlns="http://www.w3.org/2000/svg"
 width="786.000000pt" height="786.000000pt" viewBox="0 0 786.000000 786.000000"
 preserveAspectRatio="xMidYMid meet">
<metadata>
Created by potrace 1.11, written by Peter Selinger 2001-2013
</metadata>
<g transform="translate(0.000000,786.000000) scale(0.100000,-0.100000)"
fill="#000000" stroke="none">
<path d="M3665 7790 c-441 -33 -853 -129 -1239 -291 -1076 -452 -1911 -1388
-2229 -2499 -234 -817 -195 -1714 108 -2490 30 -77 79 -192 109 -256 l55 -116
473 531 473 530 1800 0 1800 1 101 24 c168 41 384 138 496 223 94 72 169 197
154 257 -17 67 -105 129 -236 165 -71 20 -107 20 -1975 21 l-1904 1 -173 -188
c-95 -103 -288 -316 -427 -471 l-255 -283 -23 78 c-95 324 -141 776 -114 1118
64 823 399 1541 987 2116 553 540 1244 854 2023 920 173 14 495 7 669 -15 608
-79 1164 -316 1647 -702 140 -112 387 -359 490 -491 l80 -103 363 0 c199 0
362 2 362 5 0 12 -116 192 -191 296 -647 905 -1633 1482 -2737 1604 -177 19
-525 27 -687 15z"/>
<path d="M3715 6524 c-16 -2 -73 -9 -125 -15 -550 -62 -1109 -337 -1514 -745
-95 -95 -216 -234 -216 -248 0 -3 22 8 49 24 83 51 290 146 414 189 135 47
269 82 430 113 111 21 130 22 1512 27 l1399 6 -54 46 c-221 185 -519 357 -795
457 -129 47 -356 104 -505 127 -100 16 -523 29 -595 19z"/>
<path d="M7272 5793 c-16 -26 -101 -162 -187 -302 l-157 -255 36 -90 c96 -243
169 -511 207 -761 27 -179 37 -595 19 -771 -42 -414 -141 -769 -315 -1129
-147 -305 -351 -595 -598 -852 -102 -105 -262 -248 -278 -248 -5 0 -107 108
-225 240 l-216 239 54 45 c106 88 315 309 400 422 103 137 197 290 266 431 47
96 112 250 112 265 0 4 -12 -5 -27 -19 -130 -119 -435 -281 -702 -372 -272
-93 -475 -126 -794 -126 -148 0 -227 -4 -225 -10 2 -5 351 -399 776 -875 l773
-865 32 22 c206 143 551 472 731 698 416 521 693 1134 800 1772 42 245 51 368
51 663 0 294 -9 418 -50 662 -69 406 -226 858 -417 1201 l-35 63 -31 -48z"/>
<path d="M2885 5150 c-157 -36 -356 -118 -461 -191 -61 -41 -99 -101 -99 -154
0 -82 80 -149 228 -192 l79 -23 1857 -1 c1021 0 1881 -4 1911 -8 30 -5 57 -7
59 -5 11 10 -105 328 -165 453 l-67 141 -1631 -1 c-1543 -1 -1635 -2 -1711
-19z"/>
<path d="M1570 1916 c-286 -327 -520 -599 -520 -605 0 -6 60 -70 133 -143 551
-552 1244 -920 2007 -1067 543 -105 1137 -89 1676 44 188 47 426 125 422 140
-2 6 -444 509 -982 1118 l-979 1107 -618 0 -619 0 -520 -594z m687 -14 c356
-302 796 -499 1288 -577 55 -9 191 -19 303 -22 l202 -6 266 -294 c146 -162
264 -296 262 -298 -8 -8 -256 -44 -382 -56 -177 -16 -541 -6 -716 20 -629 93
-1155 325 -1637 720 -136 112 -168 145 -157 164 5 8 96 123 203 255 l195 241
37 -32 c20 -18 81 -70 136 -115z"/>
</g>
</svg>
